<svg width="40" height="33" viewBox="0 0 40 33" fill="none" xmlns="http://www.w3.org/2000/svg">
<path d="M5 31H35C36.6569 31 38 29.6569 38 28V5.97728C38 4.32043 36.6569 2.97728 35 2.97728H5C3.34315 2.97728 2 4.32043 2 5.97728V28C2 29.6569 3.34315 31 5 31ZM5 33C2.23858 33 0 30.7614 0 28V5.97728C0 3.21586 2.23858 0.977284 5 0.977284H35C37.7614 0.977284 40 3.21586 40 5.97728V28C40 30.7614 37.7614 33 35 33H5ZM34 19C32.896 19 32 18.104 32 17C32 15.896 32.896 15 34 15C35.104 15 36 15.896 36 17C36 18.104 35.104 19 34 19ZM6 20C6 20.5523 5.55228 21 5 21C4.44772 21 4 20.5523 4 20V14C4 13.4477 4.44772 13 5 13C5.55228 13 6 13.4477 6 14V20Z" fill="#CCCCCC"/>
</svg>
