<svg width="48" height="28" viewBox="0 0 48 28" fill="none" xmlns="http://www.w3.org/2000/svg">
<path d="M42.12 24.8047V1.71875C42.12 0.967812 41.5116 0.359375 40.7606 0.359375H7.22156C6.47109 0.359375 5.86219 0.967812 5.86219 1.71875V24.8047H0.492188V26.3281C0.6675 26.532 1.53984 27.162 3.95297 27.1095L43.5155 27.0936C43.5155 27.0936 46.6036 27.1381 47.6719 26.3281V24.8047H42.12ZM23.9911 1.35922C24.098 1.35922 24.1847 1.44594 24.1847 1.55281C24.1847 1.65969 24.0979 1.74594 23.9911 1.74594C23.8842 1.74594 23.798 1.65969 23.798 1.55281C23.798 1.44594 23.8842 1.35922 23.9911 1.35922ZM7.84266 2.42188H40.1395V22.7656H7.84266V2.42188ZM27.4688 25.0977C27.4688 25.3306 27.2798 25.5195 27.0469 25.5195H20.6719C20.4389 25.5195 20.25 25.3306 20.25 25.0977V24.8281H27.4688V25.0977ZM44.8538 25.6133H43.2244C43.1953 25.6133 43.1719 25.5898 43.1719 25.5603C43.1719 25.5312 43.1953 25.5078 43.2244 25.5078H44.8538C44.8828 25.5078 44.9062 25.5312 44.9062 25.5603C44.9062 25.5898 44.8828 25.6133 44.8538 25.6133Z" fill="#CCCCCC"/>
</svg>
