<svg width="25" height="40" viewBox="0 0 25 40" fill="none" xmlns="http://www.w3.org/2000/svg">
<path d="M5 2C3.34315 2 2 3.34315 2 5V35C2 36.6569 3.34315 38 5 38H19.0227C20.6796 38 22.0227 36.6569 22.0227 35V5C22.0227 3.34315 20.6796 2 19.0227 2H19C18.4477 2 18 2.44772 18 3C18 4.65685 16.6569 6 15 6H9C7.34315 6 6 4.65685 6 3C6 2.44772 5.55228 2 5 2ZM7.82929 2C7.93985 2.31278 8 2.64936 8 3C8 3.55228 8.44771 4 9 4H15C15.5523 4 16 3.55228 16 3C16 2.64936 16.0602 2.31278 16.1707 2H7.82929ZM0 5C0 2.23858 2.23858 -2.38419e-07 5 -2.38419e-07H19.0227C21.7841 -2.38419e-07 24.0227 2.23858 24.0227 5V35C24.0227 37.7614 21.7841 40 19.0227 40H5C2.23858 40 0 37.7614 0 35V5Z" fill="#CCCCCC"/>
</svg>
