<svg width="25" height="44" viewBox="0 0 25 44" fill="none" xmlns="http://www.w3.org/2000/svg">
<path d="M5 12C3.34315 12 2 13.3431 2 15V29C2 30.6569 3.34315 32 5 32H19.0227C20.6796 32 22.0227 30.6569 22.0227 29V15C22.0227 13.3431 20.6796 12 19.0227 12H5ZM20 33.9045V39C20 41.7614 17.7614 44 15 44H9C6.23858 44 4 41.7614 4 39V33.9C1.71776 33.4367 0 31.419 0 29V15C0 12.581 1.71776 10.5633 4 10.1V5C4 2.23858 6.23858 0 9 0H15C17.7614 0 20 2.23858 20 5V10.0955C22.2935 10.5499 24.0227 12.573 24.0227 15V29C24.0227 31.427 22.2935 33.4501 20 33.9045ZM18 34H6V39C6 40.6569 7.34315 42 9 42H15C16.6569 42 18 40.6569 18 39V34ZM6 10H18V5C18 3.34315 16.6569 2 15 2H9C7.34315 2 6 3.34315 6 5V10Z" fill="#CCCCCC"/>
</svg>
